<mxfile host="app.diagrams.net" agent="Mozilla/5.0 (Windows NT 10.0; Win64; x64) AppleWebKit/537.36 (KHTML, like Gecko) Chrome/127.0.0.0 Safari/537.36" version="24.7.7">
  <diagram name="Page-1" id="oCqcl8Eh1iepvtKh5Xgm">
    <mxGraphModel dx="989" dy="532" grid="1" gridSize="10" guides="1" tooltips="1" connect="1" arrows="1" fold="1" page="1" pageScale="1" pageWidth="850" pageHeight="1100" background="none" math="0" shadow="0">
      <root>
        <mxCell id="0" />
        <mxCell id="1" parent="0" />
        <mxCell id="c20HiCmRx3DWUC0ZQ36T-3" style="edgeStyle=orthogonalEdgeStyle;rounded=0;orthogonalLoop=1;jettySize=auto;html=1;" edge="1" parent="1" source="c20HiCmRx3DWUC0ZQ36T-1" target="c20HiCmRx3DWUC0ZQ36T-2">
          <mxGeometry relative="1" as="geometry" />
        </mxCell>
        <mxCell id="c20HiCmRx3DWUC0ZQ36T-1" value="baz istasyonu" style="rounded=1;whiteSpace=wrap;html=1;" vertex="1" parent="1">
          <mxGeometry x="40" y="80" width="100" height="50" as="geometry" />
        </mxCell>
        <mxCell id="c20HiCmRx3DWUC0ZQ36T-2" value="RNC" style="rounded=1;whiteSpace=wrap;html=1;" vertex="1" parent="1">
          <mxGeometry x="170" y="80" width="100" height="50" as="geometry" />
        </mxCell>
        <mxCell id="c20HiCmRx3DWUC0ZQ36T-10" style="edgeStyle=orthogonalEdgeStyle;rounded=0;orthogonalLoop=1;jettySize=auto;html=1;" edge="1" parent="1" source="c20HiCmRx3DWUC0ZQ36T-7" target="c20HiCmRx3DWUC0ZQ36T-1">
          <mxGeometry relative="1" as="geometry" />
        </mxCell>
        <mxCell id="c20HiCmRx3DWUC0ZQ36T-7" value="Actor" style="shape=umlActor;verticalLabelPosition=bottom;verticalAlign=top;html=1;outlineConnect=0;" vertex="1" parent="1">
          <mxGeometry x="10" y="230" width="30" height="60" as="geometry" />
        </mxCell>
        <mxCell id="c20HiCmRx3DWUC0ZQ36T-12" value="&lt;p&gt;Kullanıcı aramayı başlatır ve arama baz istasyonundan RNC&#39;ye aktarılır. RNC, baz istasyonlarının bağlandığı merkezdir. RNC&#39;den MSC&#39;ye, MSC&#39;den de GMSC&#39;ye aktarılır. MSC ile GMSC arasında SIP haberleşmesi bulunur. Ardından, IVR&#39;a geçilir. IVR&#39;da üç aşama vardır; ikinci aşamada tüm interaktif işlemler yapılır, örneğin kullanıcıdan tuşa basması istenir ve basılan tuşa göre anons yapılır. Sonrasında, MGW&#39;ye geçiş yapılır. MGW, hem kullanıcıdan MGW&#39;ye geçişi hem de IVR&#39;den MGW&#39;ye geçişi sağlar ve kullanıcının medyasını alır, son aşamaya kadar tutar. Kullanıcıya ulaşıldığında, MGW üzerinden tekrar IVR&#39;a geçiş yapılabilir.&lt;/p&gt;" style="rounded=1;whiteSpace=wrap;html=1;" vertex="1" parent="1">
          <mxGeometry x="10" y="410" width="450" height="210" as="geometry" />
        </mxCell>
        <mxCell id="c20HiCmRx3DWUC0ZQ36T-17" style="edgeStyle=orthogonalEdgeStyle;rounded=0;orthogonalLoop=1;jettySize=auto;html=1;" edge="1" parent="1" source="c20HiCmRx3DWUC0ZQ36T-13" target="c20HiCmRx3DWUC0ZQ36T-14">
          <mxGeometry relative="1" as="geometry" />
        </mxCell>
        <mxCell id="c20HiCmRx3DWUC0ZQ36T-13" value="MSC" style="rounded=1;whiteSpace=wrap;html=1;" vertex="1" parent="1">
          <mxGeometry x="310" y="80" width="110" height="55" as="geometry" />
        </mxCell>
        <mxCell id="c20HiCmRx3DWUC0ZQ36T-25" style="edgeStyle=orthogonalEdgeStyle;rounded=0;orthogonalLoop=1;jettySize=auto;html=1;entryX=0.035;entryY=0.559;entryDx=0;entryDy=0;entryPerimeter=0;" edge="1" parent="1" source="c20HiCmRx3DWUC0ZQ36T-14" target="c20HiCmRx3DWUC0ZQ36T-38">
          <mxGeometry relative="1" as="geometry">
            <mxPoint x="640" y="105" as="targetPoint" />
          </mxGeometry>
        </mxCell>
        <mxCell id="c20HiCmRx3DWUC0ZQ36T-14" value="GMSC" style="rounded=1;whiteSpace=wrap;html=1;" vertex="1" parent="1">
          <mxGeometry x="470" y="80" width="110" height="55" as="geometry" />
        </mxCell>
        <mxCell id="c20HiCmRx3DWUC0ZQ36T-19" style="edgeStyle=orthogonalEdgeStyle;rounded=0;orthogonalLoop=1;jettySize=auto;html=1;entryX=0.008;entryY=0.415;entryDx=0;entryDy=0;entryPerimeter=0;" edge="1" parent="1" source="c20HiCmRx3DWUC0ZQ36T-2" target="c20HiCmRx3DWUC0ZQ36T-13">
          <mxGeometry relative="1" as="geometry" />
        </mxCell>
        <mxCell id="c20HiCmRx3DWUC0ZQ36T-20" value="SIP" style="text;html=1;align=center;verticalAlign=middle;whiteSpace=wrap;rounded=0;" vertex="1" parent="1">
          <mxGeometry x="410" y="40" width="70" height="35" as="geometry" />
        </mxCell>
        <mxCell id="c20HiCmRx3DWUC0ZQ36T-37" value="IVR" style="rounded=1;whiteSpace=wrap;html=1;" vertex="1" parent="1">
          <mxGeometry x="670" y="65" width="120" height="15" as="geometry" />
        </mxCell>
        <mxCell id="c20HiCmRx3DWUC0ZQ36T-41" style="edgeStyle=orthogonalEdgeStyle;rounded=0;orthogonalLoop=1;jettySize=auto;html=1;" edge="1" parent="1" source="c20HiCmRx3DWUC0ZQ36T-38">
          <mxGeometry relative="1" as="geometry">
            <mxPoint x="800" y="139.99999999999994" as="targetPoint" />
          </mxGeometry>
        </mxCell>
        <mxCell id="c20HiCmRx3DWUC0ZQ36T-38" value="ITEM 1" style="rounded=1;whiteSpace=wrap;html=1;" vertex="1" parent="1">
          <mxGeometry x="670" y="90" width="120" height="30" as="geometry" />
        </mxCell>
        <mxCell id="c20HiCmRx3DWUC0ZQ36T-42" style="edgeStyle=orthogonalEdgeStyle;rounded=0;orthogonalLoop=1;jettySize=auto;html=1;" edge="1" parent="1" source="c20HiCmRx3DWUC0ZQ36T-39">
          <mxGeometry relative="1" as="geometry">
            <mxPoint x="660" y="180" as="targetPoint" />
          </mxGeometry>
        </mxCell>
        <mxCell id="c20HiCmRx3DWUC0ZQ36T-49" style="edgeStyle=orthogonalEdgeStyle;rounded=0;orthogonalLoop=1;jettySize=auto;html=1;entryX=1;entryY=0.25;entryDx=0;entryDy=0;" edge="1" parent="1" source="c20HiCmRx3DWUC0ZQ36T-39" target="c20HiCmRx3DWUC0ZQ36T-38">
          <mxGeometry relative="1" as="geometry" />
        </mxCell>
        <mxCell id="c20HiCmRx3DWUC0ZQ36T-39" value="ITEM 2" style="rounded=1;whiteSpace=wrap;html=1;" vertex="1" parent="1">
          <mxGeometry x="680" y="130" width="120" height="30" as="geometry" />
        </mxCell>
        <mxCell id="c20HiCmRx3DWUC0ZQ36T-46" style="edgeStyle=orthogonalEdgeStyle;rounded=0;orthogonalLoop=1;jettySize=auto;html=1;entryX=1;entryY=0.5;entryDx=0;entryDy=0;" edge="1" parent="1" source="c20HiCmRx3DWUC0ZQ36T-40" target="c20HiCmRx3DWUC0ZQ36T-43">
          <mxGeometry relative="1" as="geometry" />
        </mxCell>
        <mxCell id="c20HiCmRx3DWUC0ZQ36T-48" style="edgeStyle=orthogonalEdgeStyle;rounded=0;orthogonalLoop=1;jettySize=auto;html=1;" edge="1" parent="1" source="c20HiCmRx3DWUC0ZQ36T-40">
          <mxGeometry relative="1" as="geometry">
            <mxPoint x="789.9999999999998" y="170" as="targetPoint" />
          </mxGeometry>
        </mxCell>
        <mxCell id="c20HiCmRx3DWUC0ZQ36T-40" value="ITEM 3" style="rounded=1;whiteSpace=wrap;html=1;" vertex="1" parent="1">
          <mxGeometry x="650" y="180" width="120" height="30" as="geometry" />
        </mxCell>
        <mxCell id="c20HiCmRx3DWUC0ZQ36T-44" style="rounded=0;orthogonalLoop=1;jettySize=auto;html=1;endArrow=classic;endFill=1;strokeColor=default;" edge="1" parent="1" source="c20HiCmRx3DWUC0ZQ36T-43" target="c20HiCmRx3DWUC0ZQ36T-7">
          <mxGeometry relative="1" as="geometry" />
        </mxCell>
        <mxCell id="c20HiCmRx3DWUC0ZQ36T-47" style="edgeStyle=orthogonalEdgeStyle;rounded=0;orthogonalLoop=1;jettySize=auto;html=1;" edge="1" parent="1" source="c20HiCmRx3DWUC0ZQ36T-43" target="c20HiCmRx3DWUC0ZQ36T-40">
          <mxGeometry relative="1" as="geometry" />
        </mxCell>
        <mxCell id="c20HiCmRx3DWUC0ZQ36T-43" value="MGW" style="rounded=1;whiteSpace=wrap;html=1;" vertex="1" parent="1">
          <mxGeometry x="80" y="310" width="50" height="20" as="geometry" />
        </mxCell>
        <mxCell id="c20HiCmRx3DWUC0ZQ36T-45" style="edgeStyle=orthogonalEdgeStyle;rounded=0;orthogonalLoop=1;jettySize=auto;html=1;entryX=0.51;entryY=0.348;entryDx=0;entryDy=0;entryPerimeter=0;" edge="1" parent="1">
          <mxGeometry relative="1" as="geometry">
            <mxPoint x="40" y="253.0400000000001" as="sourcePoint" />
            <mxPoint x="105.5" y="310.00000000000006" as="targetPoint" />
            <Array as="points">
              <mxPoint x="105" y="253.04" />
            </Array>
          </mxGeometry>
        </mxCell>
        <mxCell id="c20HiCmRx3DWUC0ZQ36T-52" value="&lt;b&gt;&lt;font style=&quot;font-size: 16px;&quot;&gt;Genel Özet&lt;/font&gt;&lt;/b&gt;" style="text;html=1;align=center;verticalAlign=middle;whiteSpace=wrap;rounded=0;" vertex="1" parent="1">
          <mxGeometry x="190" y="420" width="90" height="30" as="geometry" />
        </mxCell>
        <mxCell id="c20HiCmRx3DWUC0ZQ36T-53" value="&lt;div style=&quot;text-align: left;&quot;&gt;&lt;p&gt;Early media, 200 OK yanıtı verildikten sonra ücretli konuşmalarda anons geldiğinde ekstra ücret alınmaması için geliştirilmiştir. 200 OK&#39;den önce 183 Session Progress yanıtı döner ve early media anonsu yapılır.&lt;/p&gt;&lt;/div&gt;" style="rounded=1;whiteSpace=wrap;html=1;" vertex="1" parent="1">
          <mxGeometry x="10" y="650" width="450" height="210" as="geometry" />
        </mxCell>
        <mxCell id="c20HiCmRx3DWUC0ZQ36T-54" value="&lt;b&gt;&lt;font style=&quot;font-size: 16px;&quot;&gt;Early Media&lt;/font&gt;&lt;/b&gt;" style="text;html=1;align=center;verticalAlign=middle;whiteSpace=wrap;rounded=0;" vertex="1" parent="1">
          <mxGeometry x="180" y="655.53" width="110" height="30" as="geometry" />
        </mxCell>
        <mxCell id="c20HiCmRx3DWUC0ZQ36T-55" value="" style="shape=image;verticalLabelPosition=bottom;labelBackgroundColor=default;verticalAlign=top;aspect=fixed;imageAspect=0;image=data:image/png,iVBORw0KGgoAAAANSUhEUgAAAlgAAAFaBAMAAAAwaD55AAAACXBIWXMAAA7EAAAOxAGVKw4bAAAAD1BMVEUAAABmZmaZmZnMzMz///+2usLAAAAHLElEQVR42u3dS3bbOBCF4bJdC/DAC+hBFpBBFnBP993/mnoAPm3H5gOSIfDnSVqMOuahvhRBECihwmybt4AALLDAAgsssCAAC6wesCKHI7Ulr7BtZVNYsspLeW1mS2d5aQvLjhywIlXz3/IclhV2WjFEWSNYJbxkWUo1g1XCK51ZJcBqRVYMWBFq5zK0Ip2OyIh2sDRHllvCGuKqVsNVp4GXo0WsTLWG5UiHHFl+NYOlsDJL695MA0+nlA0ssMACCyyw2G6MlU1+wgQLLLC2PV3KkuVIRShiOF6kIss4C1jTM6+VWo7zDG9aA6LA+hprGKmWrDPH7hFLco48ZVgz7QDrW6z5cClLkQeP/dwrluMzrNJmHT12vPSLJf+lgT86Vh3x1mvXoUw7limiVdfh8KEj4hed0u1Y8Qes7VhPjWJFkxuR9fiRRZv14FjcDa/dz7oVVpc9+BttfT4b3nIDCyywwAILLLDAAgsssMACCyywwAJr66b5u7DjJGudL031iBV2pjM/MxJYaw9N2UUevw8rh6X0uam/Pi/DFdaY2zbs9In1b9bBGr8dO7/ZH9Z/URErBq5eL8PXE1jLBl62Y4qsPu+G/xzOw9D4/f0Zq2R6dxtZv+smraSXdJ1hPVXN8Jm/A95lZJGf9WOR1fuz4W+w7nI3vOKowytY9+jBXxDr+LPhFbHa28ACCyywwAILLLDAAgsssMACCyywwNr8s2Whe9sRi0MlWB+2srr2uOzMR6oEa/Gji3oA6VQ6y2rb4w5Y7y/DCctZFj1a7PSIdXQMfhFZpc3KESu7xTo8u7O8DHP4o2Kx0yHW6ymsoYHXZLfY6Q/r8Ix0RE5dhxJK5b/TTn9Y1fOz8t1OR1i1s2imgOoxssjP+sHI6vvZkPysu9wNLznqQH7WPXrwV8QiP+sHTgsssMACCyywwAILLLDAAgsssMACC6wbnlapRFTGCJcjhYu1G/TVCOLuooePjDUXlvvr6haL9/XZ/9tX9PCBseYqhuV3ibJIhx0ppYeadMP7047HOn57ix4+/mWoXEbZvPpTDhFXls1a7XisRhfdYH07Br+ILDsV4bBjtSRUKaY2laCb/46PFD1sF+v72Z0V1lS7MFdYU+m+QW38Oz5S9LBdrNdtWFMDPzdAn2Fpta91A+9Hb+C/n5FWxKrrsP61xBrf8aqB31/0sFWs2rkOqrFQaaNY9bNoahytUSzys340snp+NiQ/q+7dEKw9/SywdvTgwdrxbAhW9dMCCyywwAILLLDAAgsssMACCyywwALr7qc1DUcrp4Pl6hWsT3503Atlnc/aJZbCOa7UYzszFVamkvWz3l+GtjPGNaAKVjpT45paPWIdHINPWzEva1ReI4YltBRdYh2d3Ukv1oDS8JqeIq1LrNcTWBqwxtcsb058vWGdWj8rM4cFjcYIKw18DHydYVXKdZBdN95bxCLlaC9Wc888RNbjRxb5Wfe5G15y1IH8rDv04C+JRX7WD5wWWGCBBRZYYIEFFlhggQUWWGCBBRZY9z6tyHnJlXEpjANLZV0CS5ZzyHX4bCWVU4th9HcZar1ATZbD7V0q6yJYucIar8K9S2U9GtaxMfh3Sx8dXSrrwbAOzu6kP70M9y6V9WBYx+YNZX/ZwLvLBv7gjLQivuo6uMucUnIdtm+scrTnWKQcEVm0WQ97N7zoqAP5WbfvwV8Ti/ysHzgtsMACCyywwAILLLDAAgsssMACCyyw7n9aWh9inGetUHnnAlgZy7fB+oBVkvwibUtypEOl7iFYHyNLQzU6WyopIWGdja+GsY6Owct2hNOK8JClFUOCZBw9yee2sQ7P7gwFDXNu2DXWQjzeyMeLu5w3lC2HU2usKDUhj364eOtyRloRDlljA++pgU/H4ciK+EWuw3as+NMoFilHe7Fai6wgslg/61JtVnP5WU3fDVvLz2q7n9VYflbjPfi28rMafzZscAMLLLDAAgsssMACCyywwAILLLDAAuvQcRTn6xpeA0sqta/A2nSYUiWMy3A7VoK15ZQi82y6X9meuQx3fLiXa2BVaeAbnzeshFWp69D4jHRbW9u5Dg1iPTWKRcoRkUWbBRZ3Q/pZd8LqvwdfbyM/i1EHsMACCyywwAILLLDAAgsssMACC6zbn1aE01ltWqZvrJxKYYG1BWusrQbWhstQOr4O1OUiq1JG6TNYOz7cC1g7Lui3C7RZTtfoOjAjvQ+LXIc9WORnkZ91rciizXpwLO6G9LNugUV+Fs+Gt9vAAgsssMACCyywwAILLLDAAgsssMDaeTpZajuVfVGy74tN1pScJQusb7gmI7lOllbHWLnCkrvGOlnDQl5hRddYZ6ujpC90GZ6suyP7Og382YpOirhM16G1WmEtYz0FWNuPRX4WkUWb9fh3w2uNOryCdb8e/KWw2qpv2PuoA1hggQUWWGCBBRZYYIEFFlj3P6v/AYDcIrspBSvmAAAAAElFTkSuQmCC;" vertex="1" parent="1">
          <mxGeometry x="480" y="655.52" width="354.59" height="204.48" as="geometry" />
        </mxCell>
        <mxCell id="c20HiCmRx3DWUC0ZQ36T-56" value="&lt;div style=&quot;text-align: left;&quot;&gt;SIP, User A ile User B arasında gerçekleşir. İlk aşamada bir INVITE mesajı gönderilir, bu bir arama isteği olarak düşünülebilir. Bu mesajı takiben 100 Trying yanıtı döner ve ardından 180 Ringing yanıtı gelir; bu telefonun çaldığını belirtir. Eğer kullanıcı telefonu açarsa, 200 OK yanıtı döner; kullanıcı telefonu açmazsa, Canceled yanıtı verilir ve telefonun neden açılmadığına dair bir açıklama içeren bir metin döner. Telefon açıldıktan sonra RTP data gönderilir; burada kullanıcıların sesleri iletilir. Herhangi bir kullanıcı telefonu kapatırsa, BYE mesajı gönderilir.&lt;br&gt;&lt;/div&gt;" style="rounded=1;whiteSpace=wrap;html=1;perimeterSpacing=0;" vertex="1" parent="1">
          <mxGeometry x="10" y="870" width="450" height="210" as="geometry" />
        </mxCell>
        <mxCell id="c20HiCmRx3DWUC0ZQ36T-57" value="&lt;b&gt;&lt;font style=&quot;font-size: 16px;&quot;&gt;SIP&lt;/font&gt;&lt;/b&gt;" style="text;html=1;align=center;verticalAlign=middle;whiteSpace=wrap;rounded=0;" vertex="1" parent="1">
          <mxGeometry x="180" y="880" width="110" height="30" as="geometry" />
        </mxCell>
        <mxCell id="c20HiCmRx3DWUC0ZQ36T-58" value="" style="shape=image;verticalLabelPosition=bottom;labelBackgroundColor=default;verticalAlign=top;aspect=fixed;imageAspect=0;image=data:image/png,iVBORw0KGgoAAAANSUhEUgAAAioAAAFnCAMAAAC/wJKuAAABPlBMVEUAAAA3Nzc3Nzc3Nzc3Nzc3Nzc3Nzc3Nzc3Nzc3Nzc3Nzc3Nzc3Nzc3Nzc3Nzc3Nzc3Nzc3Nzc3Nzc3Nzc3NzcFktA2NTUFktA2NTU2NTU3Nzc3Nzc2NTU2NTU2NTU2NTU2NTU2NTU2NTU2NTUFktAFktAFktAFktAFktAFktAFktAFktAFktAFktAFktAFktAFktAFktAFktAFktAFktAFktAFktAFktAFktA2NTU2NTU2NTU2NTU3NzcFktAFktA3Nzc3Nzc3NzcFktAFktAFktAFktAFktAFktAFktAFktAFktA3Nzc3Nzc3Nzc2NTU3Nzc3Nzc3Nzc3Nzc3Nzc3Nzc3Nzc3Nzc3Nzc3Nzc3Nzc3Nzc3Nzc3Nzc3Nzc3Nzc3Nzc3Nzc3NzcFktA3Nzc3Nzc3Nzc3Nzc3Nzc3NzdFVPl6AAAAaXRSTlMAQOAQ8CDA0DCg9bizpubU2dvS5KWloJ5wYGBQUID/QDDwwJCgkHDoausw8CBA/8DQEOCAULDkPeLgsBDQyMT49/vc38z73IL2YNH05eI9ICLdRLsRzHeq7jOImWZVWMToauf19LBwkIDXATEIAAAP7klEQVR42uzdSW/jyBnG8cda7ezrxb72IEgvnow7k9tMkAXJZDmwuBRJkcr0xcv7/b9AJJKyFrvHhYZkt6T/D7ZhSvDtQbGqZD4lAAAAAAAAAAAAAADwhLrSprQQEBqV2At4IioNT1TwSFScd2ZJqiKVVGYyVWbmJF+YkRmsRMXFSjOviZfmP6wbVaZZqSibClhEpZY0zVVmkor0PipZ2b4OLKJSSooTKSmbZCyiYo1EwCIqUReVeqI8XolKKuDRqKQudVpGhWkKPhYVVYnvopJJql0sxaWAB1GJLWqjEmVm7WI5ISoAgD037A0uBAQws9FQwJNOR2aDGwFPuxmYjU8FPGl4bWZ3fQFPuhiY9U4EPKl/a2ZnDCwIcNIzY92MEP071s27dWYHpcdNiKiE6QngBgSmteiwWEYgtuAQho19BOHjQoThnxAQiH9twmdiyAoZgRhRAAAAAADAPouLWmpbMZJUUuzMJpqrrVXpHl1wR8xnea2ZJGm/08Iryrw6LpZEVCCVXlUtqSw0U5TyeXu1jArQaqLSJkS5V+7bzKxFxXkzP9FMPo0TRfNrm197m6uFo9BGxWvGT5TEmkmma1GxLFJaSPMf86jMr8siVulKlS4SjsNqVKpFVOr1qJTNgNJkqYlKJGni20L+ikHlWISMKov5bFY2USnU/knsSkVMZ45GE5V6MVepHpurmOaKtMzURMWpS5c3zmc4It0KKO1WQElzpUeiMvETvxGVnBHlmFTLfZVssa8yeSwqZVKkG1EpqFI/Jm1U0sQsiySVmVmux6KiLNfmqGLcgfCIZKp1uZcUOfqxsS4qtME0lzBh2T9D7VI+0YbCS5o4Jiz75nRs19qZyrJUG8rMzHJ2a/dM0yfAk3qgogTb0T8zs1v6BEBFCbZiODKzOwEBFSUjKkrw9AqZihKElnh+/7+TA8HYuDt3dlhY7e/MhZl9+H50KK5Z7rPzhjBUjiMAayCEY2cFodivRTA+BUIwPlvGZ+Okx00IwevmWwEAAAAAAAAA9o63SDO1M8vT5tqKWi1nZs4/3n6dFsJRSSoXSYqKWmlSSXERN98NF0m1q4kKpLpu8tC2z0auK2HyuRrtW4mA+zxME0lx0lWQlsXKW7Fr3nDemSXpsijdVl6Lnc1UwkFr8qA8Kb0rJdOcpcu3fN5GxcVKM78sSrflaypqpRmN2IeujYoys1j3UYmWc5Vi2kalljTNl0XptnwtcpJqBpVD105rs0o+85ujiplltdqolJr/sixKt+VraVFLCYWkh8615yp0v7qNuUrkoi4qUROLZVG6rbwWOzOOkzp4Lrqvo03ihysgn29EJY8lbUTFM6Icg3bumpVNpWi3rzJdeSv361Ep0odRyafC4XOR1N5WklJSXZj5tWlMUa5EZVmUbhs3JWP/BU8WpftEYl67b05PtV0BRenNFROW/dK/Nhtqq0KK0vNEUl1wJMP+aB5F1XaFFKWniZllnMiwN3jAHdRmgDIePK+u4uuaii9QHAhqVfBcuhXyh5uTQ0Hkd2dgB2Us7Mq12V/+OjoY58JON1TGbKggwPDazO64yYMeUmz72NwzBhawDYdt4vwOhDod8ZEhFL5uZsKCEMOzMbcgAAAAAAAA4LPlC7OJZnKzrJQUZU2FZCutFs+bRk4zPkuF4+STUqWrJZ9F8kUqJUnz3UhdEkm+qLuo1Jlw1HzVtdfmXmUhdVdSlWuuLNImKlPGlGNXT7qE+Hz+1WZmkZjuMnKKHUk5dlWsONFMnHXtOn6imaiQ1F1Griwi4bhNcy2i4hZRqdROZVt1pajIqPM6dnEmBYwqRZpS0nTc4iy9T4XPVX98rqIpC6Bj1iZFKuLFCij96ApIk4lwrLqkLPZVom5fJXt8XyV1FBsfLWeNSJqYubgrBMyij+zWlo5VEACgc37Bwx0IfGiMhzsQ+CiqAB5wx9ZqM66ZqIAyHmzF8JrqWlAciO3WqnC4C550Y2a927tDweC4O3ZYesKunJnZN5O7Q8GosuOttx5bb2D3DRxHhxdxN6C0Fhydiy07H5iN+RgIgcf8262AkHUzbdgI07/jpBcAAAAAAICXFruV4mPnVVeaySsB66oi1lyWxVLZRaWiqgmb0qLJhnym1vxywpiCB7yXSyUV8TIqPhewKYs0qbu2yS4qnlJJPBTnUpRIkVOndomjqxYPVDYXrY4qCcX6eChtQuH9stlYdUVXLR6qq0VZepWvvpTRVYt1Way5ZKrUZaWkaRsVTuzAutKpUedds3FRq9tmSQQAAHAs+jc3PGKAEH2KMRGIwg+EOhmbDc4FPO3OKPxAmCF1qqCkGdvWp/odoS56rJt36/TuUEy+MbMzYVd6dlgERpWn3M5TT6MqwupUWQSBkmZssfqdDVtwlivYfcNDnOWKF8bRAAgzZIWMMP0b/qsJAIDPyG1v4b8c3POp/vmPq4UvdKh+YqO7zuhHPxY+xW+/u3rf+fLyWx2mk8GZ7p0N2Hf6FK9//7XuvfruXzpIP7W+7vXtNych2PFe9/7yrZb+8+93Id5qr5yOfjbWig+/tiDjC+1eZTMT1daq5MzMeTVq6y5e3tuv/3SpFV/+7jLI1R+1P85t8PNfaMUvf3US4OJ2YOfauaqWyqzSjIubn5FUF/Wy2stniZZ8rJfw+s3lt3/Wir//7V2IL64uX2lfDAfj09FYK8YjBemP7eRZoqLI1qOiOllGRamrdS+P9QK+evPm9fv1UeUPgX/56nJvxpUzO9WnRUX9weh5oiKL1qMSu5WoaJpJUWKWRXJmVi0uns/7y3f6tKjoq6sr7YnBSI9F5XZgP6R30bYFPE9UykLrUfH5alSiQoq9VFVSEkv/b+/+uhJH0jCAPyigXu2du840ARHpXUIqiZHdbfViz56dPceLmUmAhBDhnJ4/rdb3/wITSZ2G7lGIoqQTnt/pPmXuHyv1vlVWoB42x7TwWFQcXSxzdo1YW3SQD/L+sajcyer9MmVZAnArS5tZq0RfRiUIp4tRgcSMO1BRUQ+bI8zHouII01nmbPbuMYSBfHg8KrKKpSryAEBJljZRAYUBFqIipfQn+NOsMpJSeioq6kHJLCq6tWqF0ytCVO6xXLW6oahMAH+Kr15AiorKZARXRoCbREU9ZB8V4WA502RUXvkF5A2fioqqgJKfpklU1AOjsoVRQTBaEpXAuwGmnou+5wGjCOqBUdnGqMAPHo+KjPmBWtN4Uw/oh3Iwe+Cssm1RyYetjsrqCohRWRWVs7NtqIBW9FXuynKfUVndVznbgr4K7stymb0Sih2V7mmr+8KopO/WnqMIUVmp4FGxhdDb60UlBUZlkW3l8zxYWxfC7DAqm4uKbQmRs6NeStcUQjiMSrqoXF40myeInajxqNm8uHxOVDq6EPmcVWLnuhBnxtpROTXN08Xx2jTNTtGicvWh2dROgMPjZvP4EDjSms0PV5eLUSlwUmbnjoQ4tdeLSks3Tb01H8+FaVp6t2BR0WpAs5mMNS35ua7VU0VFJUXPcVJixpkQ+vlaUREO4Ij56IhZPBiVRde60PNybOcptiOE6HUZlRVROW7Wah8ukvHqCjg5rtUutEbKqFyL/Ccl1rFU3fzCqOim41gWYFnxqANt4Tgt0SlYVBrHmnZ1OR9xqGnaEVZHRSXlh/+ZRfD/H4TovSwqar1m2YBtqV+dlhDiumjL2rWKZV0Uic5i+Y2iojoqLaMA2u8flraMyvKovKvVGmp8h1ijVvtbqqiorOTo76GeYp8KIVo2Xh6Vc8c5Xxxtx2kXLipHmqYdN5JRO0rWLNrhl1EpeFbmbbiXRuVaxK7no23FY6toUdFOgKtmMp5oQPMKeJe2WFYtrJaN/Or2hBCOvV5f5RQ4FfPRETbOC1csr9lXSVb7Vn6z0taFsDoAW3DPmlUunphVipuVjjlvqKw5q/QEIHpFnlXWWqsoTl6j4gghzC5muFZ52wpIOc9nUr7a/GEFxFNwT+gK0bN5Ci59VH6u1y8XR9Trje2ICq4N4HWi0jUMGzFb3ecFw+gULiqP7wFtR1S+xj2gZ+8sH2oNRuWlO8tmYXeWn+irMCrsqzAqjMrrnq1lVNY7W2sV8Gzt4yf2uazlif189FU2eK8x+yrpoqJmk6PFsZH5rKLu35l4E6SW/axyrWaT02RvyezZRYvKwxpFO5qPjeMrtVbJOioIbpBe5muVZA8oWat0dMs8s+yCRWWxAlLnVVQFlH1UoiBCbDRF35dyhKUyroDUeZVCVED/xYLfP33TxfIsKn1vPAwBDEO43gQYRFgig6hYBS2W7+T+4gLkFop2Ua/PurXxeHEMXHyo12taI/NlbWw6m1AQRIiCJDKZUVFp/2bgs474KxS9Zxg9fT62xbnh5DYqlY/lEpRS+cddKEfafA/ouAFcXqk9oMxnlbEfYDoC/DEGcgaZUVGx/6kbUDrWP7qLe0B6Zz6ilefzKvjlV/lxb+aj/PEnfNaY7yz/jNjllzvLt5lFBWMPCIdjHxhMkS0VFfzr3+K9NfNevP87FneWu4sjDMPIZbG8U0Wscl9VbneR2p3E5s2jEgVRAEQRsqYWsXbbVJwuUnNyc//MgdzHEhl85CXdCygCxoNwCLgyANwJsuQ8MjMU7yMvlXJ5SVYy+HRUumVtgJg/AjArlv0JMqM+HYUXsa38fDoK35XlwX3p2W7VB+mylP0yZWHt2nKMZ2uf6iJPn2Te/yRfpFpCttwQ34xuS7yIlZ85JbFfej5kbhThW9Ixni0vtU/O3Uh/CCqc0l61AqJVdu+klCBa5fud2SdUiZbbfSiw7nZBtNxtWco9HsGlVSpVKeU9iJZRXxVi6UMr7e9JWb4FUYoK+ROXs7TSnpT/+Uu1ML4DvZWyLJQ90Nv18qX8PSoVBd+kb+lesv6h9F2VMrsqlLpXuw8i7gDRK+8rcxOI2Iuj166byyBKVzdzcUupVJgUIiIiIiIiIqIMBKGUEWIjKf0xANeXcjBEYngjpfT7AFwPsYB/9761gsEYY28CBL6LIBwCg8Hs/8zQG7hAEE5UVCY+aKsFN0A4BjAKMA4B9QTcjPBgHA5nUZlyTtl2k0glJBg9/EsyA5UY9eh66HtMyra76aM/QKzvIwgQC6L5NV/Jo+uNQxe03aYjQEXFg4rKDWKuN7+l1A39QQDaan0fSDGrhMNhOAZtsb4//JyKYITJ02sVTFkAbbMkKUDYh6qAhk9WQIgi0LZSSYHqq7iqr+I/3lcZelPQlvLkjAtEUnp9AMOBlL77RLd27LEKIiIiomKr7JR50y6lwgs/KKX9Ku88JF74Qa+s8klKec+/y6cUvi/zwg96xoUfB5xYKIXSjpSsmymNXV6U+cYOZKHs8CXEqKSzAyK+gIjLWlJYLFNKbMFROmzsUyrcLqR0eAiBUuLRJvpGVFghU0qcUYiIiIiIiIiIiIiIiIiIiIiIiIg27w9+5hay3GmGQgAAAABJRU5ErkJggg==;" vertex="1" parent="1">
          <mxGeometry x="480" y="860" width="339.49" height="220" as="geometry" />
        </mxCell>
      </root>
    </mxGraphModel>
  </diagram>
</mxfile>
